<svg xmlns="http://www.w3.org/2000/svg" xmlns:xlink="http://www.w3.org/1999/xlink" width="500" zoomAndPan="magnify" viewBox="0 0 375 374.999991" height="500" preserveAspectRatio="xMidYMid meet" version="1.0"><defs><g/><clipPath id="9e3b60b165"><path d="M 110 158 L 245 158 L 245 299 L 110 299 Z M 110 158 " clip-rule="nonzero"/></clipPath><clipPath id="816bd02985"><path d="M 222.703125 157.605469 L 245.550781 179.292969 L 124.726562 306.578125 L 101.878906 284.894531 Z M 222.703125 157.605469 " clip-rule="nonzero"/></clipPath><clipPath id="77a297b62f"><path d="M 222.703125 157.605469 L 245.550781 179.292969 L 124.726562 306.578125 L 101.878906 284.894531 Z M 222.703125 157.605469 " clip-rule="nonzero"/></clipPath><clipPath id="656b8a9be6"><path d="M 159 177 L 276 177 L 276 299 L 159 299 Z M 159 177 " clip-rule="nonzero"/></clipPath><clipPath id="700db4eb0b"><path d="M 145.511719 198.195312 L 181.941406 163.585938 L 290.9375 278.316406 L 254.507812 312.925781 Z M 145.511719 198.195312 " clip-rule="nonzero"/></clipPath><clipPath id="6e244f14a3"><path d="M 145.511719 198.195312 L 181.941406 163.585938 L 290.9375 278.316406 L 254.507812 312.925781 Z M 145.511719 198.195312 " clip-rule="nonzero"/></clipPath><clipPath id="c7b54fb01d"><path d="M 66 75 L 183 75 L 183 197 L 66 197 Z M 66 75 " clip-rule="nonzero"/></clipPath><clipPath id="d4781aa6c4"><path d="M 51.941406 96.746094 L 88.371094 62.136719 L 197.371094 176.867188 L 160.9375 211.476562 Z M 51.941406 96.746094 " clip-rule="nonzero"/></clipPath><clipPath id="c379bcaaf7"><path d="M 51.941406 96.746094 L 88.371094 62.136719 L 197.371094 176.867188 L 160.9375 211.476562 Z M 51.941406 96.746094 " clip-rule="nonzero"/></clipPath><clipPath id="652936f088"><path d="M 187 76 L 323 76 L 323 217 L 187 217 Z M 187 76 " clip-rule="nonzero"/></clipPath><clipPath id="6a1b381973"><path d="M 300.160156 75.257812 L 323.007812 96.941406 L 202.183594 224.230469 L 179.335938 202.542969 Z M 300.160156 75.257812 " clip-rule="nonzero"/></clipPath><clipPath id="3c25ce77e9"><path d="M 300.160156 75.257812 L 323.007812 96.941406 L 202.183594 224.230469 L 179.335938 202.542969 Z M 300.160156 75.257812 " clip-rule="nonzero"/></clipPath><clipPath id="644e0a20bc"><path d="M 118.417969 136.777344 L 266.8125 136.777344 L 266.8125 285.171875 L 118.417969 285.171875 Z M 118.417969 136.777344 " clip-rule="nonzero"/></clipPath><clipPath id="222e70f289"><path d="M 192.613281 136.777344 C 151.636719 136.777344 118.417969 169.996094 118.417969 210.972656 C 118.417969 251.953125 151.636719 285.171875 192.613281 285.171875 C 233.59375 285.171875 266.8125 251.953125 266.8125 210.972656 C 266.8125 169.996094 233.59375 136.777344 192.613281 136.777344 Z M 192.613281 136.777344 " clip-rule="nonzero"/></clipPath><clipPath id="4c4e39c340"><path d="M 97.835938 116.195312 L 287.585938 116.195312 L 287.585938 305.945312 L 97.835938 305.945312 Z M 97.835938 116.195312 " clip-rule="nonzero"/></clipPath><clipPath id="0e9b556b9c"><path d="M 140 137 L 245 137 L 245 207.277344 L 140 207.277344 Z M 140 137 " clip-rule="nonzero"/></clipPath><clipPath id="76dcf35258"><path d="M 91.546875 211 L 294 211 L 294 268.722656 L 91.546875 268.722656 Z M 91.546875 211 " clip-rule="nonzero"/></clipPath><clipPath id="65e8a9e129"><path d="M 139.773438 260.242188 L 151.023438 260.242188 L 151.023438 272.242188 L 139.773438 272.242188 Z M 139.773438 260.242188 " clip-rule="nonzero"/></clipPath><clipPath id="2f20e752c9"><path d="M 233.839844 260.242188 L 245.089844 260.242188 L 245.089844 272.242188 L 233.839844 272.242188 Z M 233.839844 260.242188 " clip-rule="nonzero"/></clipPath></defs><g clip-path="url(#9e3b60b165)"><g clip-path="url(#816bd02985)"><g clip-path="url(#77a297b62f)"><path fill="#ffffff" d="M 181.140625 216.304688 C 184.515625 212.753906 185.394531 207.820312 183.710938 203.964844 C 182.761719 201.792969 183.316406 199.101562 185.113281 197.207031 L 221.421875 158.957031 C 222.125 158.214844 223.351562 158.230469 224.15625 158.996094 C 224.960938 159.761719 225.039062 160.980469 224.335938 161.722656 L 196.53125 191.015625 C 196.058594 191.511719 195.804688 192.175781 195.820312 192.863281 C 195.839844 193.546875 196.128906 194.195312 196.625 194.664062 C 196.625 194.667969 196.625 194.667969 196.625 194.667969 C 197.121094 195.136719 197.785156 195.394531 198.46875 195.375 C 199.152344 195.355469 199.804688 195.070312 200.277344 194.570312 C 206.664062 187.84375 228.082031 165.277344 228.082031 165.277344 C 228.785156 164.539062 230.007812 164.550781 230.816406 165.316406 C 231.617188 166.078125 231.699219 167.304688 230.996094 168.042969 L 203.1875 197.335938 C 202.714844 197.835938 202.460938 198.496094 202.480469 199.179688 C 202.496094 199.867188 202.785156 200.511719 203.285156 200.984375 C 203.78125 201.457031 204.445312 201.714844 205.128906 201.695312 C 205.8125 201.679688 206.460938 201.390625 206.933594 200.890625 C 213.320312 194.164062 234.738281 171.597656 234.738281 171.597656 C 235.441406 170.855469 236.667969 170.875 237.472656 171.636719 C 238.277344 172.402344 238.355469 173.621094 237.652344 174.363281 L 209.847656 203.65625 C 209.375 204.15625 209.121094 204.816406 209.140625 205.503906 C 209.15625 206.183594 209.445312 206.835938 209.941406 207.304688 C 210.441406 207.777344 211.101562 208.03125 211.785156 208.015625 C 212.472656 207.996094 213.117188 207.707031 213.589844 207.210938 C 219.976562 200.484375 241.394531 177.917969 241.394531 177.917969 C 242.101562 177.175781 243.324219 177.191406 244.128906 177.957031 C 244.128906 177.957031 244.128906 177.957031 244.132812 177.957031 C 244.9375 178.722656 245.015625 179.941406 244.308594 180.683594 L 210.324219 216.488281 L 207.992188 218.941406 C 206.199219 220.835938 203.539062 221.53125 201.320312 220.695312 C 197.386719 219.21875 192.511719 220.351562 189.144531 223.902344 L 139.875 278.816406 C 139.875 278.816406 130.71875 289.382812 124.816406 296.191406 C 123.542969 297.660156 121.726562 298.546875 119.78125 298.644531 C 117.839844 298.738281 115.945312 298.035156 114.535156 296.695312 C 113.804688 296 113.058594 295.292969 112.328125 294.601562 C 110.917969 293.261719 110.113281 291.402344 110.105469 289.460938 C 110.101562 287.511719 110.890625 285.648438 112.292969 284.300781 C 118.792969 278.054688 128.867188 268.363281 128.867188 268.363281 Z M 181.140625 216.304688 " fill-opacity="1" fill-rule="evenodd"/></g></g></g><g clip-path="url(#656b8a9be6)"><g clip-path="url(#700db4eb0b)"><g clip-path="url(#6e244f14a3)"><path fill="#ffffff" d="M 203.503906 236.089844 C 195.246094 240.195312 185.144531 239.910156 175.382812 229.632812 C 162.316406 215.878906 154.765625 189.402344 163.824219 180.796875 C 172.886719 172.1875 198.941406 181.085938 212.007812 194.839844 C 221.757812 205.105469 221.539062 215.191406 217.035156 223.226562 C 216.394531 226.355469 217.367188 229.90625 219.917969 232.589844 L 258.742188 271.226562 C 258.742188 271.226562 267.902344 279.820312 273.84375 285.398438 C 275.136719 286.609375 275.871094 288.296875 275.875 290.070312 C 275.878906 291.839844 275.15625 293.535156 273.871094 294.753906 L 272 296.53125 C 270.714844 297.75 268.984375 298.390625 267.21875 298.292969 C 265.449219 298.195312 263.800781 297.375 262.652344 296.023438 C 257.390625 289.800781 249.28125 280.214844 249.28125 280.214844 L 212.6875 239.457031 C 210.148438 236.78125 206.65625 235.625 203.503906 236.089844 Z M 203.503906 236.089844 " fill-opacity="1" fill-rule="evenodd"/></g></g></g><g clip-path="url(#c7b54fb01d)"><g clip-path="url(#d4781aa6c4)"><g clip-path="url(#c379bcaaf7)"><path fill="#fffff7" d="M 109.933594 134.644531 C 101.675781 138.75 91.574219 138.460938 81.8125 128.1875 C 68.746094 114.433594 61.195312 87.957031 70.253906 79.347656 C 79.316406 70.738281 105.371094 79.636719 118.4375 93.390625 C 128.1875 103.65625 127.96875 113.742188 123.464844 121.777344 C 122.824219 124.90625 123.796875 128.460938 126.347656 131.144531 L 165.171875 169.777344 C 165.171875 169.777344 174.332031 178.371094 180.273438 183.949219 C 181.566406 185.160156 182.300781 186.851562 182.304688 188.621094 C 182.3125 190.390625 181.585938 192.085938 180.300781 193.304688 L 178.429688 195.085938 C 177.144531 196.304688 175.414062 196.941406 173.648438 196.847656 C 171.878906 196.75 170.230469 195.925781 169.082031 194.574219 C 163.820312 188.351562 155.710938 178.765625 155.710938 178.765625 L 119.117188 138.011719 C 116.578125 135.335938 113.085938 134.175781 109.933594 134.644531 Z M 109.933594 134.644531 " fill-opacity="1" fill-rule="evenodd"/></g></g></g><g clip-path="url(#652936f088)"><g clip-path="url(#6a1b381973)"><g clip-path="url(#3c25ce77e9)"><path fill="#fffff7" d="M 258.597656 133.957031 C 261.972656 130.402344 262.851562 125.472656 261.167969 121.613281 C 260.21875 119.441406 260.773438 116.75 262.570312 114.855469 L 298.878906 76.605469 C 299.582031 75.863281 300.808594 75.882812 301.613281 76.644531 C 301.613281 76.644531 301.613281 76.648438 301.613281 76.648438 C 302.417969 77.410156 302.496094 78.628906 301.792969 79.371094 L 273.988281 108.664062 C 273.515625 109.164062 273.261719 109.828125 273.277344 110.511719 C 273.296875 111.195312 273.585938 111.84375 274.082031 112.3125 C 274.082031 112.316406 274.082031 112.316406 274.082031 112.316406 C 274.578125 112.785156 275.242188 113.042969 275.925781 113.023438 C 276.609375 113.003906 277.261719 112.71875 277.734375 112.222656 C 284.117188 105.492188 305.539062 82.929688 305.539062 82.929688 C 306.242188 82.1875 307.464844 82.203125 308.269531 82.964844 C 309.074219 83.730469 309.15625 84.953125 308.453125 85.695312 L 280.644531 114.988281 C 280.171875 115.484375 279.917969 116.144531 279.9375 116.832031 C 279.953125 117.515625 280.242188 118.164062 280.742188 118.636719 C 281.238281 119.105469 281.902344 119.363281 282.585938 119.34375 C 283.269531 119.328125 283.917969 119.039062 284.390625 118.539062 C 290.777344 111.8125 312.195312 89.25 312.195312 89.25 C 312.898438 88.507812 314.125 88.523438 314.929688 89.285156 C 315.734375 90.050781 315.8125 91.273438 315.109375 92.015625 L 287.304688 121.304688 C 286.832031 121.804688 286.578125 122.46875 286.597656 123.152344 C 286.613281 123.835938 286.902344 124.484375 287.398438 124.957031 C 287.898438 125.429688 288.558594 125.683594 289.242188 125.664062 C 289.929688 125.648438 290.574219 125.359375 291.046875 124.859375 C 297.433594 118.132812 318.851562 95.566406 318.851562 95.566406 C 319.558594 94.824219 320.78125 94.84375 321.585938 95.605469 C 321.585938 95.605469 321.585938 95.605469 321.589844 95.609375 C 322.394531 96.371094 322.472656 97.589844 321.765625 98.332031 L 287.777344 134.140625 L 285.449219 136.589844 C 283.652344 138.484375 280.996094 139.183594 278.777344 138.34375 C 274.84375 136.867188 269.96875 138.003906 266.601562 141.550781 L 217.332031 196.46875 C 217.332031 196.46875 208.175781 207.03125 202.273438 213.839844 C 201 215.3125 199.183594 216.195312 197.238281 216.292969 C 195.296875 216.386719 193.402344 215.683594 191.988281 214.34375 C 191.261719 213.652344 190.515625 212.941406 189.785156 212.25 C 188.375 210.910156 187.570312 209.054688 187.5625 207.109375 C 187.558594 205.164062 188.347656 203.300781 189.75 201.949219 C 196.25 195.703125 206.320312 186.015625 206.320312 186.015625 Z M 258.597656 133.957031 " fill-opacity="1" fill-rule="evenodd"/></g></g></g><g clip-path="url(#644e0a20bc)"><g clip-path="url(#222e70f289)"><path fill="#ffffff" d="M 118.417969 136.777344 L 266.8125 136.777344 L 266.8125 285.171875 L 118.417969 285.171875 Z M 118.417969 136.777344 " fill-opacity="1" fill-rule="nonzero"/></g></g><g clip-path="url(#4c4e39c340)"><path fill="#ffffff" d="M 192.625 116.179688 C 140.3125 116.179688 97.847656 158.648438 97.847656 210.957031 C 97.847656 263.265625 140.3125 305.730469 192.625 305.730469 C 244.933594 305.730469 287.398438 263.265625 287.398438 210.957031 C 287.398438 158.648438 244.933594 116.179688 192.625 116.179688 Z M 192.625 123.976562 C 240.625 123.976562 279.601562 162.953125 279.601562 210.957031 C 279.601562 258.960938 240.625 297.933594 192.625 297.933594 C 144.617188 297.933594 105.644531 258.960938 105.644531 210.957031 C 105.644531 162.953125 144.617188 123.976562 192.625 123.976562 Z M 192.625 123.976562 " fill-opacity="1" fill-rule="evenodd"/></g><path fill="#3f8f14" d="M 192.625 125.675781 C 145.554688 125.675781 107.34375 163.886719 107.34375 210.957031 C 107.34375 258.023438 145.554688 296.238281 192.625 296.238281 C 239.691406 296.238281 277.90625 258.023438 277.90625 210.957031 C 277.90625 163.886719 239.691406 125.675781 192.625 125.675781 Z M 192.625 147.625 C 227.574219 147.625 255.957031 176.003906 255.957031 210.957031 C 255.957031 245.910156 227.574219 274.285156 192.625 274.285156 C 157.671875 274.285156 129.292969 245.910156 129.292969 210.957031 C 129.292969 176.003906 157.671875 147.625 192.625 147.625 Z M 192.625 147.625 " fill-opacity="1" fill-rule="evenodd"/><path fill="#3f8f14" d="M 244.992188 246.558594 L 260.253906 262.894531 C 244.65625 283.164062 220.152344 296.238281 192.625 296.238281 C 165.277344 296.238281 140.921875 283.339844 125.3125 263.304688 L 140.550781 246.988281 C 151.992188 263.480469 171.054688 274.285156 192.625 274.285156 C 214.378906 274.285156 233.585938 263.292969 244.992188 246.558594 Z M 244.992188 246.558594 " fill-opacity="1" fill-rule="evenodd"/><path fill="#59b429" d="M 192.628906 123.496094 C 144.355469 123.496094 105.167969 162.6875 105.167969 210.957031 C 105.167969 259.226562 144.355469 298.417969 192.628906 298.417969 C 240.898438 298.417969 280.085938 259.226562 280.085938 210.957031 C 280.085938 162.6875 240.898438 123.496094 192.628906 123.496094 Z M 192.628906 126.152344 C 239.433594 126.152344 277.433594 164.152344 277.433594 210.957031 C 277.433594 257.761719 239.433594 295.765625 192.628906 295.765625 C 145.820312 295.765625 107.820312 257.761719 107.820312 210.957031 C 107.820312 164.152344 145.820312 126.152344 192.628906 126.152344 Z M 192.628906 126.152344 " fill-opacity="1" fill-rule="evenodd"/><g clip-path="url(#0e9b556b9c)"><path fill="#59b429" d="M 165.972656 152.417969 C 166.027344 152.195312 166.082031 151.976562 166.140625 151.761719 C 166.417969 150.769531 166.777344 149.835938 167.199219 148.949219 C 168.980469 145.179688 171.898438 142.347656 175.429688 140.414062 C 178.8125 138.558594 182.773438 137.539062 186.835938 137.292969 C 192.824219 136.925781 199.039062 138.246094 204.003906 141.066406 C 207.621094 143.121094 210.574219 145.972656 212.320312 149.53125 C 212.5 149.902344 212.683594 150.265625 212.871094 150.617188 C 221.054688 147.683594 227.964844 148.433594 233.21875 151.277344 C 241.304688 155.652344 245.484375 165.035156 244.3125 173.929688 C 243.035156 183.589844 235.488281 192.730469 219.714844 194.085938 L 219.714844 206.574219 C 219.714844 206.882812 219.550781 207.167969 219.285156 207.324219 C 219.019531 207.480469 218.691406 207.484375 218.421875 207.328125 C 201.21875 197.589844 183.347656 197.542969 164.792969 207.34375 C 164.523438 207.484375 164.199219 207.476562 163.9375 207.320312 C 163.679688 207.160156 163.519531 206.878906 163.519531 206.574219 L 163.519531 196.421875 C 147.261719 195.757812 139.746094 184.566406 140.261719 173.675781 C 140.785156 162.667969 149.535156 151.851562 165.972656 152.417969 Z M 165.972656 152.417969 " fill-opacity="1" fill-rule="evenodd"/><path fill="#000000" d="M 165.882812 152.300781 C 165.929688 152.109375 165.976562 151.921875 166.03125 151.734375 C 166.308594 150.734375 166.671875 149.792969 167.09375 148.902344 C 168.886719 145.109375 171.820312 142.261719 175.375 140.316406 C 178.773438 138.453125 182.75 137.429688 186.828125 137.179688 C 192.839844 136.8125 199.078125 138.136719 204.058594 140.96875 C 207.703125 143.035156 210.667969 145.90625 212.425781 149.484375 C 212.589844 149.820312 212.753906 150.152344 212.925781 150.480469 C 221.105469 147.570312 228.015625 148.332031 233.273438 151.175781 C 241.402344 155.578125 245.605469 165.007812 244.425781 173.949219 C 243.148438 183.628906 235.601562 192.800781 219.832031 194.195312 L 219.832031 206.578125 C 219.832031 206.925781 219.648438 207.25 219.34375 207.425781 C 219.042969 207.601562 218.667969 207.605469 218.363281 207.433594 C 201.199219 197.714844 183.363281 197.667969 164.847656 207.445312 C 164.542969 207.609375 164.175781 207.597656 163.878906 207.417969 C 163.585938 207.242188 163.402344 206.921875 163.402344 206.578125 L 163.402344 196.53125 C 147.140625 195.820312 139.628906 184.59375 140.148438 173.671875 C 140.671875 162.632812 149.425781 151.777344 165.882812 152.300781 Z M 183.394531 181.371094 C 177.40625 182.371094 171.398438 184.433594 165.371094 187.550781 L 165.371094 204.964844 C 183.5 195.859375 200.992188 195.902344 217.867188 204.914062 L 217.867188 188.835938 C 204.207031 195.628906 191.191406 191.128906 183.539062 181.515625 C 183.484375 181.472656 183.4375 181.425781 183.394531 181.371094 Z M 226.117188 159.917969 C 223.152344 160.6875 220.585938 160.386719 218.308594 159.234375 C 217.261719 158.703125 216.285156 157.984375 215.367188 157.101562 C 213.613281 155.402344 212.113281 153.078125 210.730469 150.320312 C 209.125 147.085938 206.402344 144.523438 203.101562 142.664062 C 198.425781 140.027344 192.582031 138.804688 186.949219 139.144531 C 183.160156 139.375 179.472656 140.320312 176.300781 142.023438 C 173.078125 143.761719 170.398438 146.289062 168.71875 149.6875 C 168.324219 150.488281 167.984375 151.339844 167.699219 152.234375 C 167.421875 153.085938 167.1875 153.976562 167.019531 154.917969 C 166.75 156.359375 166.726562 158.472656 166.882812 160.539062 C 167.050781 162.742188 167.414062 164.882812 167.941406 166.101562 C 168.019531 166.269531 167.949219 166.46875 167.78125 166.550781 C 167.613281 166.632812 167.414062 166.5625 167.332031 166.394531 C 166.675781 165.167969 166.101562 162.960938 165.75 160.671875 C 165.414062 158.488281 165.289062 156.242188 165.460938 154.6875 C 165.480469 154.542969 165.5 154.398438 165.519531 154.257812 C 150.609375 153.921875 142.589844 163.703125 142.113281 173.765625 C 141.640625 183.738281 148.589844 193.867188 163.402344 194.5625 L 163.402344 192.242188 C 162.269531 192.484375 161.210938 192.578125 160.230469 192.480469 C 159.40625 192.398438 158.636719 192.203125 157.929688 191.878906 C 157.046875 191.476562 156.253906 190.914062 155.5625 190.179688 C 154.953125 189.535156 154.429688 188.78125 153.96875 187.898438 C 153.851562 187.71875 153.898438 187.472656 154.082031 187.351562 C 154.261719 187.230469 154.503906 187.28125 154.628906 187.457031 C 155.085938 187.996094 155.570312 188.449219 156.070312 188.851562 C 156.847656 189.476562 157.679688 189.890625 158.578125 190.167969 C 159.152344 190.34375 159.753906 190.441406 160.390625 190.480469 C 161.265625 190.535156 162.207031 190.472656 163.222656 190.242188 L 163.402344 190.199219 L 163.402344 187.980469 L 162.824219 187.851562 L 162.820312 187.851562 C 160.808594 187.324219 159.070312 186.523438 157.628906 185.410156 C 156.601562 184.617188 155.714844 183.679688 154.984375 182.59375 C 154.144531 181.335938 153.503906 179.898438 153.0625 178.28125 C 152.683594 176.890625 152.457031 175.382812 152.355469 173.738281 C 152.332031 173.523438 152.488281 173.328125 152.703125 173.300781 C 152.917969 173.273438 153.117188 173.425781 153.144531 173.640625 C 153.378906 174.855469 153.691406 175.976562 154.0625 177.03125 C 154.667969 178.761719 155.476562 180.246094 156.472656 181.511719 C 157.160156 182.390625 157.945312 183.152344 158.835938 183.808594 C 160.105469 184.742188 161.585938 185.464844 163.324219 185.929688 L 163.945312 186.078125 C 170.039062 182.867188 176.109375 180.707031 182.160156 179.589844 C 181.9375 179.230469 181.710938 178.835938 181.492188 178.414062 C 181.003906 177.480469 180.539062 176.398438 180.167969 175.179688 C 179.9375 174.414062 179.730469 173.601562 179.601562 172.730469 C 179.523438 172.191406 179.453125 171.636719 179.453125 171.058594 C 179.453125 170.164062 179.582031 169.269531 179.757812 168.308594 C 179.769531 168.121094 179.925781 167.976562 180.113281 167.984375 C 180.296875 167.988281 180.445312 168.140625 180.445312 168.324219 C 180.566406 169.242188 180.78125 170.070312 180.964844 170.894531 C 181.082031 171.410156 181.179688 171.910156 181.300781 172.398438 C 181.488281 173.175781 181.703125 173.910156 181.949219 174.59375 C 182.335938 175.679688 182.789062 176.640625 183.242188 177.484375 C 183.789062 178.492188 184.332031 179.324219 184.792969 179.957031 C 184.835938 179.996094 184.878906 180.039062 184.914062 180.089844 C 192.082031 189.253906 204.449219 193.511719 217.390625 186.871094 C 217.414062 186.855469 217.441406 186.84375 217.46875 186.828125 C 217.484375 186.820312 217.496094 186.8125 217.511719 186.808594 C 217.753906 186.683594 217.996094 186.550781 218.238281 186.417969 C 219.113281 185.914062 220.3125 185.082031 221.558594 183.785156 C 222.273438 183.039062 223.007812 182.152344 223.714844 181.078125 C 224.441406 179.976562 225.132812 178.695312 225.765625 177.191406 C 226.292969 175.925781 226.800781 174.53125 227.195312 172.933594 C 227.234375 172.738281 227.421875 172.601562 227.625 172.636719 C 227.824219 172.671875 227.957031 172.859375 227.925781 173.058594 C 227.773438 174.765625 227.511719 176.289062 227.125 177.664062 C 226.648438 179.363281 225.996094 180.808594 225.289062 182.046875 C 224.578125 183.289062 223.792969 184.3125 223.007812 185.15625 C 221.878906 186.367188 220.757812 187.203125 219.832031 187.777344 L 219.832031 189.386719 C 220.941406 189.15625 221.890625 188.804688 222.730469 188.40625 C 223.382812 188.097656 223.96875 187.773438 224.484375 187.371094 C 225.414062 186.636719 226.140625 185.765625 226.632812 184.644531 C 226.703125 184.441406 226.921875 184.324219 227.128906 184.390625 C 227.335938 184.453125 227.453125 184.671875 227.394531 184.878906 C 227.234375 185.753906 226.953125 186.546875 226.546875 187.285156 C 226.125 188.050781 225.5625 188.726562 224.859375 189.320312 C 224.347656 189.757812 223.75 190.132812 223.078125 190.449219 C 222.222656 190.851562 221.238281 191.136719 220.144531 191.355469 L 219.832031 191.40625 L 219.832031 192.21875 C 234.269531 190.878906 241.300781 182.59375 242.476562 173.6875 C 243.550781 165.535156 239.75 156.917969 232.339844 152.90625 C 227.5625 150.320312 221.304688 149.671875 213.90625 152.21875 C 214.753906 153.609375 215.660156 154.824219 216.632812 155.839844 C 217.402344 156.644531 218.203125 157.324219 219.078125 157.859375 C 221.015625 159.050781 223.253906 159.539062 225.949219 159.121094 C 226.167969 159.078125 226.382812 159.21875 226.429688 159.4375 C 226.472656 159.65625 226.332031 159.871094 226.117188 159.917969 Z M 226.117188 159.917969 " fill-opacity="1" fill-rule="evenodd"/></g><g clip-path="url(#76dcf35258)"><path fill="#ffffff" d="M 261.753906 215.367188 C 243.503906 212.59375 218.945312 211.066406 192.601562 211.066406 C 166.253906 211.066406 141.695312 212.59375 123.445312 215.367188 C 102.277344 218.582031 91.546875 223.113281 91.546875 228.832031 L 91.546875 260.410156 C 91.546875 262.964844 93.210938 265.089844 96.363281 266.554688 C 99.035156 267.792969 102.617188 268.476562 106.449219 268.476562 C 113.605469 268.476562 121.300781 265.96875 121.351562 260.464844 C 121.351562 260.460938 121.351562 260.460938 121.351562 260.460938 C 121.351562 260.445312 121.351562 260.425781 121.351562 260.410156 C 121.351562 260.132812 121.320312 259.871094 121.265625 259.613281 C 120.746094 254.789062 120.519531 249.46875 121.03125 248.660156 C 121.113281 248.617188 121.175781 248.550781 121.226562 248.484375 C 138.941406 245.566406 163.804688 243.839844 192.601562 243.839844 C 218.886719 243.839844 243.382812 245.359375 261.574219 248.125 C 262.394531 248.25 263.195312 248.375 263.988281 248.507812 C 264.039062 248.566406 264.097656 248.621094 264.167969 248.660156 C 264.679688 249.46875 264.453125 254.789062 263.933594 259.613281 C 263.878906 259.871094 263.847656 260.132812 263.847656 260.410156 C 263.847656 262.964844 265.511719 265.089844 268.664062 266.554688 C 271.335938 267.792969 274.917969 268.476562 278.75 268.476562 C 285.925781 268.476562 293.652344 265.953125 293.652344 260.410156 L 293.652344 228.832031 C 293.652344 223.113281 282.921875 218.582031 261.753906 215.367188 " fill-opacity="1" fill-rule="nonzero"/><path fill="#3f8f14" d="M 292.460938 230.398438 C 290.972656 228.324219 287.101562 225.390625 277.132812 223.148438 C 277.027344 223.121094 276.917969 223.191406 276.890625 223.300781 C 276.867188 223.40625 276.933594 223.515625 277.042969 223.542969 C 287.886719 225.980469 291.355469 229.253906 292.460938 231.214844 L 292.460938 232.6875 C 290.835938 230.484375 286.441406 227.3125 274.738281 224.679688 C 274.632812 224.652344 274.519531 224.722656 274.496094 224.832031 C 274.472656 224.941406 274.539062 225.050781 274.648438 225.074219 C 287.328125 227.925781 291.257812 231.417969 292.460938 233.488281 L 292.460938 234.457031 C 290.972656 232.382812 287.101562 229.445312 277.132812 227.203125 C 277.027344 227.179688 276.917969 227.246094 276.890625 227.355469 C 276.867188 227.464844 276.933594 227.574219 277.042969 227.601562 C 287.886719 230.039062 291.355469 233.3125 292.460938 235.273438 L 292.460938 236.746094 C 290.835938 234.542969 286.441406 231.367188 274.738281 228.734375 C 274.632812 228.710938 274.519531 228.78125 274.496094 228.890625 C 274.472656 229 274.539062 229.105469 274.648438 229.132812 C 287.328125 231.984375 291.257812 235.472656 292.460938 237.542969 L 292.460938 238.515625 C 290.972656 236.441406 287.101562 233.503906 277.132812 231.261719 C 277.027344 231.238281 276.917969 231.304688 276.890625 231.414062 C 276.867188 231.523438 276.933594 231.632812 277.042969 231.65625 C 287.886719 234.097656 291.355469 237.367188 292.460938 239.328125 L 292.460938 240.804688 C 290.835938 238.601562 286.441406 235.425781 274.738281 232.792969 C 274.632812 232.769531 274.519531 232.835938 274.496094 232.945312 C 274.472656 233.054688 274.539062 233.164062 274.648438 233.1875 C 287.328125 236.039062 291.257812 239.53125 292.460938 241.601562 L 292.460938 242.570312 C 290.972656 240.496094 287.101562 237.558594 277.132812 235.316406 C 277.027344 235.292969 276.917969 235.363281 276.890625 235.472656 C 276.867188 235.582031 276.933594 235.6875 277.042969 235.714844 C 287.886719 238.152344 291.355469 241.425781 292.460938 243.386719 L 292.460938 244.859375 C 290.835938 242.65625 286.441406 239.484375 274.738281 236.851562 C 274.632812 236.824219 274.519531 236.894531 274.496094 237.003906 C 274.472656 237.113281 274.539062 237.222656 274.648438 237.246094 C 287.328125 240.097656 291.257812 243.585938 292.460938 245.660156 L 292.460938 246.628906 C 290.972656 244.554688 287.101562 241.617188 277.132812 239.375 C 277.027344 239.347656 276.917969 239.417969 276.890625 239.527344 C 276.867188 239.636719 276.933594 239.746094 277.042969 239.769531 C 287.886719 242.210938 291.355469 245.484375 292.460938 247.441406 L 292.460938 248.917969 C 290.835938 246.714844 286.441406 243.539062 274.738281 240.90625 C 274.632812 240.882812 274.519531 240.953125 274.496094 241.0625 C 274.472656 241.171875 274.539062 241.277344 274.648438 241.304688 C 287.328125 244.15625 291.257812 247.644531 292.460938 249.714844 L 292.460938 250.6875 C 290.972656 248.609375 287.101562 245.675781 277.132812 243.433594 C 277.027344 243.40625 276.917969 243.476562 276.890625 243.585938 C 276.867188 243.695312 276.933594 243.804688 277.042969 243.828125 C 287.886719 246.265625 291.355469 249.539062 292.460938 251.5 L 292.460938 252.972656 C 290.835938 250.769531 286.441406 247.597656 274.738281 244.964844 C 274.632812 244.941406 274.519531 245.007812 274.496094 245.117188 C 274.472656 245.226562 274.539062 245.335938 274.648438 245.359375 C 287.328125 248.210938 291.257812 251.703125 292.460938 253.773438 L 292.460938 254.742188 C 290.972656 252.667969 287.101562 249.730469 277.132812 247.488281 C 277.027344 247.464844 276.917969 247.535156 276.890625 247.644531 C 276.867188 247.753906 276.933594 247.859375 277.042969 247.886719 C 287.886719 250.324219 291.355469 253.597656 292.460938 255.558594 L 292.460938 257.242188 C 289.132812 252.996094 278.84375 249.542969 261.753906 246.945312 C 243.503906 244.171875 218.945312 242.648438 192.601562 242.648438 C 166.253906 242.648438 141.695312 244.171875 123.445312 246.945312 C 106.355469 249.542969 96.066406 252.996094 92.738281 257.242188 L 92.738281 255.765625 C 93.710938 253.835938 97.03125 250.410156 108.265625 247.886719 C 108.375 247.859375 108.445312 247.753906 108.417969 247.644531 C 108.394531 247.535156 108.289062 247.464844 108.175781 247.488281 C 97.949219 249.789062 94.140625 252.820312 92.738281 254.902344 L 92.738281 253.976562 C 93.796875 251.9375 97.558594 248.308594 110.664062 245.359375 C 110.773438 245.335938 110.839844 245.226562 110.8125 245.117188 C 110.789062 245.007812 110.683594 244.9375 110.574219 244.964844 C 98.589844 247.660156 94.269531 250.921875 92.738281 253.132812 L 92.738281 251.707031 C 93.710938 249.777344 97.03125 246.355469 108.265625 243.828125 C 108.375 243.804688 108.445312 243.695312 108.417969 243.585938 C 108.394531 243.476562 108.289062 243.410156 108.175781 243.433594 C 97.949219 245.734375 94.140625 248.761719 92.738281 250.847656 L 92.738281 249.921875 C 93.796875 247.878906 97.558594 244.25 110.664062 241.304688 C 110.773438 241.277344 110.839844 241.171875 110.8125 241.0625 C 110.789062 240.953125 110.683594 240.882812 110.574219 240.90625 C 98.589844 243.601562 94.269531 246.867188 92.738281 249.074219 L 92.738281 247.652344 C 93.710938 245.722656 97.03125 242.296875 108.265625 239.769531 C 108.375 239.746094 108.445312 239.636719 108.417969 239.527344 C 108.394531 239.417969 108.289062 239.347656 108.175781 239.375 C 97.949219 241.675781 94.140625 244.707031 92.738281 246.789062 L 92.738281 245.863281 C 93.796875 243.820312 97.558594 240.191406 110.664062 237.246094 C 110.773438 237.222656 110.839844 237.113281 110.8125 237.003906 C 110.789062 236.894531 110.683594 236.828125 110.574219 236.851562 C 98.589844 239.546875 94.269531 242.808594 92.738281 245.015625 L 92.738281 243.59375 C 93.710938 241.664062 97.03125 238.238281 108.265625 235.714844 C 108.375 235.6875 108.445312 235.582031 108.417969 235.472656 C 108.394531 235.363281 108.289062 235.292969 108.175781 235.316406 C 97.949219 237.617188 94.140625 240.648438 92.738281 242.730469 L 92.738281 241.804688 C 93.796875 239.765625 97.558594 236.136719 110.664062 233.1875 C 110.773438 233.164062 110.839844 233.054688 110.8125 232.945312 C 110.789062 232.835938 110.683594 232.769531 110.574219 232.792969 C 98.589844 235.488281 94.269531 238.753906 92.738281 240.960938 L 92.738281 239.535156 C 93.710938 237.609375 97.03125 234.183594 108.265625 231.65625 C 108.375 231.632812 108.445312 231.523438 108.417969 231.414062 C 108.394531 231.304688 108.289062 231.234375 108.175781 231.261719 C 97.949219 233.5625 94.140625 236.59375 92.738281 238.675781 L 92.738281 237.75 C 93.796875 235.707031 97.558594 232.078125 110.664062 229.132812 C 110.773438 229.105469 110.839844 229 110.8125 228.890625 C 110.789062 228.78125 110.683594 228.710938 110.574219 228.734375 C 98.589844 231.433594 94.269531 234.695312 92.738281 236.902344 L 92.738281 235.480469 C 93.710938 233.550781 97.03125 230.125 108.265625 227.601562 C 108.375 227.574219 108.445312 227.464844 108.417969 227.355469 C 108.394531 227.246094 108.289062 227.179688 108.175781 227.203125 C 97.949219 229.503906 94.140625 232.535156 92.738281 234.617188 L 92.738281 233.691406 C 93.796875 231.652344 97.558594 228.019531 110.664062 225.074219 C 110.773438 225.050781 110.839844 224.941406 110.8125 224.832031 C 110.789062 224.722656 110.683594 224.652344 110.574219 224.679688 C 98.589844 227.375 94.269531 230.636719 92.738281 232.84375 L 92.738281 231.421875 C 93.710938 229.492188 97.03125 226.070312 108.265625 223.542969 C 108.375 223.515625 108.445312 223.40625 108.417969 223.300781 C 108.394531 223.191406 108.289062 223.121094 108.175781 223.148438 C 97.949219 225.449219 94.140625 228.476562 92.738281 230.558594 L 92.738281 229.632812 C 93.796875 227.59375 97.558594 223.964844 110.664062 221.019531 C 110.773438 220.992188 110.839844 220.886719 110.8125 220.777344 C 110.789062 220.667969 110.683594 220.597656 110.574219 220.621094 C 98.597656 223.316406 94.277344 226.574219 92.742188 228.785156 C 92.878906 219.207031 134.832031 212.257812 192.601562 212.257812 C 218.886719 212.257812 243.382812 213.78125 261.574219 216.542969 C 281.195312 219.523438 292.121094 223.804688 292.445312 228.613281 C 290.808594 226.410156 286.40625 223.246094 274.738281 220.621094 C 274.632812 220.597656 274.519531 220.667969 274.496094 220.777344 C 274.472656 220.886719 274.539062 220.992188 274.648438 221.019531 C 287.328125 223.871094 291.257812 227.359375 292.460938 229.429688 Z M 271.949219 255.921875 C 273.238281 255.714844 274.613281 255.609375 275.984375 255.609375 C 278.128906 255.609375 280.164062 255.855469 281.894531 256.316406 L 281.890625 258.789062 C 280.671875 258.140625 278.695312 257.878906 276.796875 257.878906 C 275 257.878906 273.136719 258.117188 271.910156 258.695312 C 272.042969 257.253906 272.023438 256.417969 271.949219 255.921875 Z M 286.925781 260.410156 C 286.925781 261.140625 286.453125 261.789062 285.515625 262.328125 C 282.5625 264.03125 276.078125 264.03125 273.125 262.328125 C 272.195312 261.792969 271.722656 261.15625 271.710938 260.433594 C 271.714844 260.40625 271.71875 260.378906 271.722656 260.351562 C 271.851562 259.796875 273.753906 259.070312 276.796875 259.070312 C 279.953125 259.070312 281.886719 259.851562 281.886719 260.410156 C 281.886719 260.738281 282.152344 261.007812 282.480469 261.007812 C 282.808594 261.007812 283.078125 260.742188 283.078125 260.410156 L 283.085938 256.683594 C 283.292969 256.753906 283.492188 256.832031 283.6875 256.914062 C 285.101562 257.503906 286.773438 258.542969 286.914062 260.1875 L 286.917969 260.332031 C 286.917969 260.359375 286.921875 260.382812 286.925781 260.40625 C 286.925781 260.410156 286.925781 260.410156 286.925781 260.410156 Z M 265.402344 248.742188 C 275 250.382812 282.207031 252.359375 286.761719 254.566406 L 286.84375 257.53125 C 285.882812 256.578125 284.453125 255.851562 282.777344 255.34375 C 282.703125 255.300781 282.621094 255.277344 282.535156 255.269531 C 280.539062 254.695312 278.226562 254.417969 275.984375 254.417969 C 271.890625 254.417969 267.582031 255.339844 265.363281 257.304688 C 265.816406 252.320312 265.6875 249.921875 265.402344 248.742188 Z M 278.75 267.285156 C 271.949219 267.285156 265.0625 264.929688 265.042969 260.433594 C 265.066406 260.21875 265.085938 260.019531 265.109375 259.8125 C 265.53125 258.023438 267.835938 256.792969 270.789062 256.144531 C 270.867188 256.792969 270.75 258.53125 270.554688 260.070312 C 270.554688 260.089844 270.554688 260.105469 270.550781 260.125 C 270.542969 260.195312 270.53125 260.265625 270.523438 260.332031 C 270.523438 260.347656 270.523438 260.359375 270.523438 260.375 C 270.523438 260.386719 270.519531 260.398438 270.519531 260.410156 C 270.519531 261.226562 270.867188 262.402344 272.527344 263.359375 C 275.890625 265.300781 282.746094 265.300781 286.109375 263.359375 C 287.75 262.414062 288.109375 261.257812 288.117188 260.445312 C 288.128906 260.398438 288.136719 260.347656 288.132812 260.296875 L 287.996094 255.203125 C 290.933594 256.839844 292.460938 258.585938 292.460938 260.410156 C 292.460938 264.921875 285.566406 267.285156 278.75 267.285156 Z M 113.289062 258.695312 C 112.0625 258.117188 110.199219 257.878906 108.402344 257.878906 C 106.503906 257.878906 104.527344 258.140625 103.308594 258.789062 L 103.304688 256.316406 C 105.082031 255.847656 107.152344 255.609375 109.214844 255.609375 C 110.628906 255.609375 111.988281 255.71875 113.25 255.921875 C 113.175781 256.417969 113.160156 257.253906 113.289062 258.695312 Z M 98.277344 260.320312 C 98.332031 258.6875 99.875 257.464844 102.117188 256.675781 L 102.121094 260.410156 C 102.121094 260.742188 102.386719 261.007812 102.71875 261.007812 C 103.046875 261.007812 103.3125 260.738281 103.3125 260.410156 C 103.3125 259.851562 105.25 259.070312 108.402344 259.070312 C 109.8125 259.070312 111.175781 259.238281 112.136719 259.527344 C 113.03125 259.800781 113.40625 260.117188 113.476562 260.339844 C 113.476562 260.371094 113.484375 260.398438 113.484375 260.429688 C 113.460938 262.496094 109.558594 263.613281 105.878906 263.613281 C 102.199219 263.613281 98.285156 262.492188 98.273438 260.417969 C 98.273438 260.394531 98.277344 260.371094 98.277344 260.347656 Z M 119.832031 257.304688 C 117.617188 255.339844 113.308594 254.417969 109.214844 254.417969 C 106.972656 254.417969 104.660156 254.695312 102.664062 255.269531 C 102.578125 255.277344 102.496094 255.300781 102.421875 255.34375 C 100.652344 255.878906 99.15625 256.660156 98.199219 257.695312 L 98.113281 254.722656 C 102.714844 252.417969 110.128906 250.386719 119.800781 248.722656 C 119.515625 249.894531 119.378906 252.292969 119.832031 257.304688 Z M 106.449219 267.285156 C 99.636719 267.285156 92.738281 264.921875 92.738281 260.410156 C 92.738281 258.628906 94.1875 256.9375 96.914062 255.367188 L 97.0625 260.382812 C 97.0625 260.433594 97.070312 260.476562 97.082031 260.523438 C 97.121094 261.515625 97.679688 262.847656 100.011719 263.808594 C 101.570312 264.453125 103.652344 264.804688 105.878906 264.804688 C 111.902344 264.804688 114.625 262.640625 114.675781 260.472656 C 114.675781 260.460938 114.679688 260.449219 114.679688 260.4375 C 114.679688 260.425781 114.679688 260.417969 114.679688 260.410156 C 114.679688 260.398438 114.675781 260.386719 114.675781 260.375 C 114.675781 260.359375 114.679688 260.347656 114.675781 260.332031 C 114.667969 260.265625 114.65625 260.195312 114.648438 260.125 C 114.644531 260.105469 114.644531 260.089844 114.640625 260.070312 C 114.453125 258.53125 114.332031 256.789062 114.410156 256.144531 C 115.328125 256.347656 116.175781 256.605469 116.921875 256.914062 C 118.230469 257.460938 119.757812 258.386719 120.089844 259.828125 C 120.113281 260.03125 120.132812 260.226562 120.160156 260.433594 C 120.136719 264.929688 113.25 267.285156 106.449219 267.285156 Z M 261.753906 215.367188 C 243.503906 212.59375 218.945312 211.066406 192.601562 211.066406 C 166.253906 211.066406 141.695312 212.59375 123.445312 215.367188 C 102.277344 218.582031 91.546875 223.113281 91.546875 228.832031 L 91.546875 260.410156 C 91.546875 262.964844 93.210938 265.089844 96.363281 266.554688 C 99.035156 267.792969 102.617188 268.476562 106.449219 268.476562 C 113.605469 268.476562 121.300781 265.96875 121.351562 260.464844 C 121.351562 260.460938 121.351562 260.460938 121.351562 260.460938 C 121.351562 260.445312 121.351562 260.425781 121.351562 260.410156 C 121.351562 260.132812 121.320312 259.871094 121.265625 259.613281 C 120.746094 254.789062 120.519531 249.46875 121.03125 248.660156 C 121.113281 248.617188 121.175781 248.550781 121.226562 248.484375 C 138.941406 245.566406 163.804688 243.839844 192.601562 243.839844 C 218.886719 243.839844 243.382812 245.359375 261.574219 248.125 C 262.394531 248.25 263.195312 248.375 263.988281 248.507812 C 264.039062 248.566406 264.097656 248.621094 264.167969 248.660156 C 264.679688 249.46875 264.453125 254.789062 263.933594 259.613281 C 263.878906 259.871094 263.847656 260.132812 263.847656 260.410156 C 263.847656 262.964844 265.511719 265.089844 268.664062 266.554688 C 271.335938 267.792969 274.917969 268.476562 278.75 268.476562 C 285.925781 268.476562 293.652344 265.953125 293.652344 260.410156 L 293.652344 228.832031 C 293.652344 223.113281 282.921875 218.582031 261.753906 215.367188 " fill-opacity="1" fill-rule="nonzero"/></g><g clip-path="url(#65e8a9e129)"><path fill="#fcb036" d="M 145.496094 260.253906 C 145.5 260.246094 145.503906 260.242188 145.511719 260.242188 C 145.519531 260.242188 145.523438 260.246094 145.527344 260.253906 C 145.660156 260.621094 146.695312 263.402344 147.589844 264.367188 C 148.480469 265.328125 150.902344 266.285156 151.230469 266.410156 C 151.238281 266.414062 151.242188 266.417969 151.242188 266.425781 C 151.242188 266.429688 151.238281 266.4375 151.230469 266.4375 C 150.902344 266.570312 148.421875 267.558594 147.53125 268.519531 C 146.640625 269.484375 145.660156 272.210938 145.527344 272.59375 C 145.523438 272.597656 145.519531 272.605469 145.511719 272.605469 C 145.503906 272.605469 145.5 272.597656 145.5 272.59375 C 145.386719 272.210938 144.582031 269.53125 143.691406 268.570312 C 142.796875 267.605469 140.121094 266.5625 139.789062 266.4375 C 139.785156 266.433594 139.78125 266.429688 139.78125 266.425781 C 139.78125 266.417969 139.785156 266.414062 139.789062 266.410156 C 140.109375 266.265625 142.65625 265.089844 143.554688 264.121094 C 144.445312 263.160156 145.371094 260.605469 145.496094 260.253906 Z M 145.496094 260.253906 " fill-opacity="1" fill-rule="evenodd"/></g><g fill="#3f8f14" fill-opacity="1"><g transform="translate(133.251918, 242.41832)"><g><path d="M 25.535156 -3.488281 C 23.167969 -3.296875 23.183594 -7.046875 22.988281 -9.441406 L 22.121094 -20.230469 C 22.035156 -21.273438 22.246094 -22.59375 22.679688 -23.515625 L 23.003906 -24.207031 C 22.101562 -24.007812 20.597656 -23.730469 19.023438 -23.601562 C 16.8125 -23.425781 14.484375 -23.554688 13.472656 -24.710938 C 13.082031 -24.425781 12.699219 -23.664062 12.773438 -22.71875 C 12.882812 -21.359375 13.5 -20.394531 14.433594 -19.867188 L 14.925781 -13.746094 L 9.375 -13.296875 L 8.902344 -19.167969 C 8.816406 -20.207031 9.027344 -21.527344 9.460938 -22.449219 L 9.789062 -23.144531 C 8.882812 -22.941406 7.382812 -22.664062 5.804688 -22.535156 C 3.59375 -22.359375 1.265625 -22.488281 0.253906 -23.644531 C -0.136719 -23.359375 -0.519531 -22.597656 -0.445312 -21.652344 C -0.335938 -20.292969 0.28125 -19.328125 1.214844 -18.800781 L 2.394531 -3.78125 C 2.476562 -2.738281 2.203125 -1.449219 1.703125 -0.550781 L 1.425781 -0.0507812 L 11.675781 -0.878906 L 11.324219 -1.324219 C 10.6875 -2.132812 10.207031 -3.363281 10.125 -4.40625 L 9.527344 -11.40625 L 15.078125 -11.851562 L 15.597656 -5.449219 C 15.867188 -2.105469 18.210938 -0.992188 21.523438 -1.257812 C 23.632812 -1.460938 25.21875 -2.289062 25.535156 -3.488281 Z M 25.535156 -3.488281 "/></g></g></g><g fill="#3f8f14" fill-opacity="1"><g transform="translate(159.773778, 240.299879)"><g><path d="M 4.679688 -3.65625 L 5.382812 -6.085938 L 13.070312 -6.367188 L 13.945312 -4.085938 C 14.300781 -3.054688 14.410156 -1.792969 14.1875 -0.929688 L 14.078125 -0.449219 L 24.355469 -0.824219 L 23.832031 -1.28125 C 22.917969 -2.101562 22.046875 -3.339844 21.660156 -4.367188 L 16.085938 -19.175781 C 15.699219 -20.207031 15.527344 -21.5 15.683594 -22.394531 L 15.785156 -23.0625 C 13.675781 -22.699219 8.195312 -21.960938 5.839844 -23.964844 C 5.53125 -23.703125 5.339844 -22.964844 5.71875 -22.03125 C 6.03125 -21.3125 6.433594 -20.695312 6.925781 -20.207031 L 2.023438 -3.558594 C 1.710938 -2.566406 1.089844 -1.339844 0.457031 -0.523438 L 0.00390625 0.0625 L 5.191406 -0.125 L 5.019531 -0.46875 C 4.507812 -1.398438 4.367188 -2.660156 4.679688 -3.65625 Z M 8.847656 -17.867188 L 12.398438 -8.242188 L 5.945312 -8.007812 Z M 8.847656 -17.867188 "/></g></g></g><g fill="#3f8f14" fill-opacity="1"><g transform="translate(183.738976, 239.43196)"><g><path d="M 2.246094 -23.539062 C 1.835938 -23.289062 1.390625 -22.5625 1.386719 -21.613281 C 1.378906 -20.25 1.914062 -19.234375 2.796875 -18.628906 L 2.703125 -3.566406 C 2.699219 -2.519531 2.316406 -1.257812 1.742188 -0.40625 L 1.425781 0.0703125 L 11.710938 0.109375 L 11.394531 -0.363281 C 10.828125 -1.222656 10.453125 -2.488281 10.457031 -3.535156 L 10.46875 -5.621094 L 11.636719 -5.617188 C 11.828125 -5.617188 12.523438 -5.613281 12.714844 -5.613281 C 19.296875 -5.585938 23.328125 -8.199219 23.351562 -13.894531 C 23.375 -19.589844 19.398438 -22.234375 12.78125 -22.261719 C 12.464844 -22.261719 12.59375 -22.261719 11.707031 -22.265625 C 10.757812 -22.144531 9.203125 -21.992188 7.621094 -21.996094 C 5.40625 -22.007812 3.128906 -22.332031 2.246094 -23.539062 Z M 10.558594 -20.402344 L 11.128906 -20.402344 C 13.882812 -20.421875 15.457031 -18.609375 15.4375 -13.925781 C 15.417969 -9.242188 13.828125 -7.445312 11.078125 -7.457031 L 10.476562 -7.457031 L 10.488281 -18.347656 C 10.492188 -19.390625 10.527344 -20.023438 10.558594 -20.402344 Z M 10.558594 -20.402344 "/></g></g></g><g fill="#3f8f14" fill-opacity="1"><g transform="translate(206.338892, 239.516296)"><g><path d="M 3.171875 -23.433594 C 2.75 -23.195312 2.277344 -22.488281 2.234375 -21.539062 C 2.175781 -20.179688 2.667969 -19.144531 3.527344 -18.507812 L 2.84375 -3.457031 C 2.796875 -2.414062 2.363281 -1.164062 1.757812 -0.335938 L 1.421875 0.125 L 11.695312 0.570312 L 11.402344 0.0820312 C 10.867188 -0.796875 10.542969 -2.078125 10.589844 -3.121094 L 10.679688 -5.207031 L 11.851562 -5.15625 C 12.039062 -5.148438 12.734375 -5.117188 12.925781 -5.109375 C 19.503906 -4.824219 23.632812 -7.273438 23.878906 -12.964844 C 24.125 -18.65625 20.257812 -21.453125 13.648438 -21.742188 C 13.332031 -21.753906 13.457031 -21.75 12.574219 -21.789062 C 11.617188 -21.703125 10.0625 -21.613281 8.480469 -21.679688 C 6.269531 -21.777344 4.003906 -22.191406 3.171875 -23.433594 Z M 11.351562 -19.972656 L 11.921875 -19.949219 C 14.675781 -19.859375 16.175781 -17.988281 15.972656 -13.308594 C 15.769531 -8.628906 14.113281 -6.894531 11.359375 -7.015625 L 10.761719 -7.039062 L 11.199219 -17.917969 C 11.246094 -18.964844 11.304688 -19.59375 11.351562 -19.972656 Z M 11.351562 -19.972656 "/></g></g></g><g fill="#3f8f14" fill-opacity="1"><g transform="translate(228.912898, 240.482148)"><g><path d="M 16.097656 -2.246094 C 16.140625 -3.128906 16.085938 -3.992188 16.203125 -4.617188 C 16.632812 -7.121094 18.488281 -9.539062 19.527344 -11.707031 C 21.308594 -15.5625 22.695312 -19.226562 24.929688 -20.5 C 24.675781 -20.488281 22.605469 -20.4375 20.746094 -20.59375 C 19.324219 -20.714844 18.015625 -20.980469 17.703125 -21.453125 C 17.3125 -21.324219 17.050781 -20.871094 17.09375 -20.234375 C 17.207031 -19.300781 18.054688 -18.4375 19.144531 -18.15625 C 19.890625 -17.234375 16.585938 -9.605469 15.199219 -9.71875 C 15.074219 -9.730469 14.953125 -9.804688 14.871094 -9.96875 C 13.628906 -12.199219 11.492188 -18.191406 11.445312 -21.433594 C 10.296875 -21.371094 8.585938 -21.039062 6.820312 -21.1875 C 5.464844 -21.300781 4.128906 -21.695312 3.007812 -22.710938 C 1.882812 -21.789062 1.855469 -18.425781 4.417969 -17.894531 C 6.015625 -14.203125 7.824219 -9.253906 8.632812 -6.011719 C 8.636719 -5.28125 8.492188 -3.578125 8.371094 -2.890625 C 8.285156 -1.847656 7.800781 -0.617188 7.164062 0.183594 L 6.808594 0.632812 L 17.058594 1.488281 L 16.78125 0.988281 C 16.285156 0.0898438 16.042969 -1.199219 16.097656 -2.246094 Z M 16.097656 -2.246094 "/></g></g></g><g fill="#ffffff" fill-opacity="1"><g transform="translate(165.930883, 284.905771)"><g><path d="M 7.515625 -9.378906 C 7.042969 -9.300781 6.46875 -9.339844 5.894531 -9.449219 C 4.847656 -9.652344 3.824219 -10.113281 3.523438 -10.675781 C 3.308594 -10.597656 3.019531 -10.300781 2.933594 -9.859375 C 2.8125 -9.226562 2.984375 -8.703125 3.339844 -8.34375 L 1.515625 -1.429688 C 1.390625 -0.949219 1.117188 -0.394531 0.773438 -0.046875 L 0.597656 0.148438 L 2.835938 0.585938 L 2.746094 0.335938 C 2.558594 -0.113281 2.453125 -0.742188 2.574219 -1.222656 L 4.050781 -6.894531 L 4.710938 -1.355469 C 4.84375 -0.246094 5.484375 0.535156 6.441406 0.722656 C 7.386719 0.894531 8.023438 0.453125 8.222656 -0.0117188 L 11.171875 -5.730469 L 10.359375 0.296875 C 10.292969 0.789062 9.972656 1.335938 9.632812 1.683594 L 9.441406 1.875 L 14.222656 2.808594 L 14.132812 2.5625 C 13.933594 2.109375 13.898438 1.492188 13.964844 1 L 14.855469 -5.972656 C 14.917969 -6.464844 15.214844 -7.035156 15.53125 -7.398438 L 15.765625 -7.675781 C 15.207031 -7.707031 14.347656 -7.769531 13.511719 -7.933594 C 12.761719 -8.078125 12.027344 -8.3125 11.507812 -8.703125 L 8.359375 -2.597656 C 8.082031 -4.53125 7.855469 -6.4375 7.515625 -9.378906 Z M 7.515625 -9.378906 "/></g></g></g><g fill="#ffffff" fill-opacity="1"><g transform="translate(183.327572, 287.925154)"><g><path d="M 9.8125 0.386719 C 9.515625 -0.40625 9.59375 -2.292969 10.007812 -2.90625 C 8.761719 -3.210938 7.914062 -1.972656 7.8125 -0.578125 L 5.101562 -0.707031 C 5.035156 -0.964844 5.003906 -1.234375 5.011719 -1.488281 L 5.15625 -5.308594 L 6.261719 -5.265625 C 7.042969 -5.234375 7.058594 -4.527344 7.042969 -4.152344 C 7.175781 -4.101562 7.742188 -4.046875 7.910156 -4.058594 L 8.027344 -6.933594 C 7.863281 -6.941406 7.292969 -6.949219 7.15625 -6.894531 C 7.117188 -6.355469 7.097656 -5.832031 6.289062 -5.863281 L 5.179688 -5.910156 L 5.304688 -8.949219 C 5.3125 -9.160156 5.347656 -9.308594 5.398438 -9.441406 L 8.035156 -9.347656 C 8.023438 -7.96875 8.765625 -6.664062 10.035156 -6.851562 C 9.671875 -7.496094 9.75 -9.382812 10.109375 -10.164062 L 5.917969 -10.335938 L 5.929688 -10.335938 C 5.511719 -10.351562 4.714844 -10.308594 3.890625 -10.34375 C 2.886719 -10.386719 1.859375 -10.546875 1.476562 -11.101562 C 1.277344 -10.992188 1.054688 -10.65625 1.035156 -10.207031 C 1.007812 -9.5625 1.242188 -9.070312 1.652344 -8.769531 L 1.34375 -1.640625 C 1.324219 -1.144531 1.117188 -0.554688 0.816406 -0.160156 L 0.675781 0.0273438 L 5.542969 0.226562 L 5.542969 0.210938 Z M 9.8125 0.386719 "/></g></g></g><g fill="#ffffff" fill-opacity="1"><g transform="translate(196.195301, 288.326734)"><g><path d="M 2.117188 -1.851562 L 2.386719 -3.019531 L 6.011719 -3.355469 L 6.488281 -2.300781 C 6.683594 -1.824219 6.765625 -1.230469 6.683594 -0.8125 L 6.644531 -0.585938 L 11.496094 -1.035156 L 11.238281 -1.234375 C 10.78125 -1.601562 10.339844 -2.160156 10.128906 -2.640625 L 7.101562 -9.496094 C 6.890625 -9.972656 6.773438 -10.578125 6.824219 -11.003906 L 6.855469 -11.324219 C 5.867188 -11.097656 3.292969 -10.605469 2.128906 -11.488281 C 1.992188 -11.355469 1.917969 -11.003906 2.125 -10.570312 C 2.289062 -10.238281 2.496094 -9.957031 2.742188 -9.738281 L 0.863281 -1.734375 C 0.742188 -1.257812 0.480469 -0.660156 0.203125 -0.257812 L 0.00390625 0.03125 L 2.449219 -0.195312 L 2.359375 -0.355469 C 2.097656 -0.78125 1.996094 -1.375 2.117188 -1.851562 Z M 3.714844 -8.683594 L 5.648438 -4.226562 L 2.601562 -3.945312 Z M 3.714844 -8.683594 "/></g></g></g><g fill="#ffffff" fill-opacity="1"><g transform="translate(210.101773, 286.818122)"><g><path d="M 9.445312 -2.140625 C 8.953125 -2.832031 8.539062 -4.671875 8.777344 -5.375 C 7.496094 -5.34375 7 -3.925781 7.261719 -2.558594 L 4.742188 -2.003906 C 4.613281 -2.238281 4.511719 -2.492188 4.453125 -2.738281 L 2.898438 -9.582031 C 2.789062 -10.0625 2.800781 -10.695312 2.941406 -11.160156 L 3.050781 -11.503906 C 2.636719 -11.351562 1.953125 -11.121094 1.222656 -10.957031 C 0.199219 -10.726562 -0.902344 -10.632812 -1.457031 -11.105469 C -1.621094 -10.945312 -1.75 -10.5625 -1.648438 -10.125 C -1.507812 -9.496094 -1.152344 -9.082031 -0.683594 -8.898438 L 0.871094 -1.933594 C 0.980469 -1.449219 0.9375 -0.824219 0.746094 -0.367188 L 0.65625 -0.148438 L 5.410156 -1.21875 L 5.410156 -1.234375 Z M 9.445312 -2.140625 "/></g></g></g><g clip-path="url(#2f20e752c9)"><path fill="#fcb036" d="M 239.5625 260.253906 C 239.566406 260.246094 239.570312 260.242188 239.578125 260.242188 C 239.582031 260.242188 239.589844 260.246094 239.589844 260.253906 C 239.726562 260.621094 240.757812 263.402344 241.652344 264.367188 C 242.542969 265.328125 244.96875 266.285156 245.296875 266.410156 C 245.300781 266.414062 245.304688 266.417969 245.304688 266.425781 C 245.304688 266.429688 245.300781 266.4375 245.296875 266.4375 C 244.964844 266.570312 242.488281 267.558594 241.597656 268.519531 C 240.703125 269.484375 239.726562 272.210938 239.59375 272.59375 C 239.589844 272.597656 239.585938 272.605469 239.578125 272.605469 C 239.570312 272.605469 239.566406 272.597656 239.5625 272.59375 C 239.453125 272.210938 238.648438 269.53125 237.757812 268.570312 C 236.859375 267.605469 234.1875 266.5625 233.855469 266.4375 C 233.847656 266.433594 233.847656 266.429688 233.84375 266.425781 C 233.84375 266.417969 233.847656 266.414062 233.855469 266.410156 C 234.171875 266.265625 236.722656 265.089844 237.617188 264.121094 C 238.507812 263.160156 239.4375 260.605469 239.5625 260.253906 Z M 239.5625 260.253906 " fill-opacity="1" fill-rule="evenodd"/></g></svg>